HIERARCHY
ROOT Hips
{
	OFFSET 0.000000 0.000000 0.000000
	CHANNELS 6 Xposition Yposition Zposition Xrotation Yrotation Zrotation
	JOINT Spine
	{
		OFFSET 0.000000 4.617136 -6.925691
		CHANNELS 3 Xrotation Yrotation Zrotation
		JOINT Spine1
		{
			OFFSET 0.000000 1.603502 -9.093962
			CHANNELS 3 Xrotation Yrotation Zrotation
			JOINT Spine2
			{
				OFFSET 0.000000 0.804824 -9.199118
				CHANNELS 3 Xrotation Yrotation Zrotation
				JOINT Spine3
				{
					OFFSET 0.000000 0.000000 -9.234246
					CHANNELS 3 Xrotation Yrotation Zrotation
					JOINT Neck
					{
						OFFSET 0.000003 -3.462833 -24.239906
						CHANNELS 3 Xrotation Yrotation Zrotation
						JOINT Head
						{
							OFFSET 0.000000 -2.204822 -12.504194
							CHANNELS 3 Xrotation Yrotation Zrotation
							End Site
							{
								OFFSET 0.000003 0.000000 -14.947953
							}
						}
					}
					JOINT RightShoulder
					{
						OFFSET 2.917647 -4.862754 -15.755341
						CHANNELS 3 Xrotation Yrotation Zrotation
						JOINT RightArm
						{
							OFFSET 14.491005 0.000000 0.000000
							CHANNELS 3 Xrotation Yrotation Zrotation
							JOINT RightForeArm
							{
								OFFSET 28.886760 0.000000 0.000005
								CHANNELS 3 Xrotation Yrotation Zrotation
								JOINT RightHand
								{
									OFFSET 21.960279 0.000000 0.000000
									CHANNELS 3 Xrotation Yrotation Zrotation
									End Site
									{
										OFFSET 6.589316 0.000000 0.000000
									}
								}
							}
						}
					}
					JOINT LeftShoulder
					{
						OFFSET -2.917645 -4.862754 -15.755341
						CHANNELS 3 Xrotation Yrotation Zrotation
						JOINT LeftArm
						{
							OFFSET -14.491005 0.000000 0.000000
							CHANNELS 3 Xrotation Yrotation Zrotation
							JOINT LeftForeArm
							{
								OFFSET -28.886760 0.000000 -0.000005
								CHANNELS 3 Xrotation Yrotation Zrotation
								JOINT LeftHand
								{
									OFFSET -21.960279 0.000000 0.000000
									CHANNELS 3 Xrotation Yrotation Zrotation
									End Site
									{
										OFFSET -6.589316 0.000000 0.000000
									}
								}
							}
						}
					}
				}
			}
		}
	}
	JOINT RightUpLeg
	{
		OFFSET 8.655710 0.000000 2.528646
		CHANNELS 3 Xrotation Yrotation Zrotation
		JOINT RightLeg
		{
			OFFSET -0.000003 0.000000 37.889104
			CHANNELS 3 Xrotation Yrotation Zrotation
			JOINT RightFoot
			{
				OFFSET -0.000003 0.000000 37.543788
				CHANNELS 3 Xrotation Yrotation Zrotation
				JOINT RightToeBase
				{
					OFFSET -0.000000 -14.403146 5.242334
					CHANNELS 3 Xrotation Yrotation Zrotation
					End Site
					{
						OFFSET 0.000000 -7.002374 0.000000
					}
				}
			}
		}
	}
	JOINT LeftUpLeg
	{
		OFFSET -8.655710 0.000000 2.528646
		CHANNELS 3 Xrotation Yrotation Zrotation
		JOINT LeftLeg
		{
			OFFSET -0.000003 0.000000 37.889104
			CHANNELS 3 Xrotation Yrotation Zrotation
			JOINT LeftFoot
			{
				OFFSET -0.000003 0.000000 37.543788
				CHANNELS 3 Xrotation Yrotation Zrotation
				JOINT LeftToeBase
				{
					OFFSET -0.000000 -14.403146 5.242334
					CHANNELS 3 Xrotation Yrotation Zrotation
					End Site
					{
						OFFSET 0.000000 -7.002374 0.000000
					}
				}
			}
		}
	}
}
MOTION
Frames: 8
Frame Time: 0.033333
0.000000 84.703872 0.000000 90.000000 0.000000 -180.000000 0.000000 0.000000 0.000000 0.000000 0.000000 0.000000 0.000000 0.000000 0.000000 0.000000 0.000000 0.000000 0.000000 0.000000 0.000000 0.000000 0.000000 0.000000 0.000000 0.000000 0.000000 0.000000 0.000000 0.000000 0.000000 0.000000 0.000000 0.000000 0.000000 0.000000 0.000000 0.000000 0.000000 0.000000 0.000000 0.000000 0.000000 0.000000 0.000000 0.000000 0.000000 0.000000 0.000000 0.000000 0.000000 0.000000 0.000000 0.000000 0.000000 0.000000 0.000000 0.000000 0.000000 0.000000 0.000000 0.000000 0.000000 0.000000 0.000000 0.000000 0.000000 0.000000 0.000000 0.000000 0.000000 0.000000 
-16.966171 85.377774 -105.526581 78.470187 -7.054813 -159.643512 -8.816901 -0.735701 -0.005299 -2.947300 -0.662100 -0.223203 -6.871400 -2.863098 -7.468900 -2.889799 -2.975399 -2.573701 -17.479501 -19.021997 -3.054506 -6.276698 -14.370900 -17.572796 2.840503 19.052998 8.108098 -70.275105 -52.402686 -77.294907 -0.000005 -0.000006 -99.811303 30.292898 16.069294 7.627696 -8.935796 -17.482204 8.911096 -67.437229 66.919382 83.751718 0.000007 -0.000004 19.345102 0.013000 -6.619202 2.457501 8.217602 2.717999 6.153705 -20.064203 0.000004 -0.000003 2.548097 -2.643097 11.835399 22.836206 0.000001 0.000002 -19.152800 -0.133498 -5.878700 -8.599901 0.000000 0.000000 13.101199 -1.113102 -5.839100 10.396300 0.000001 0.000003 
-17.711153 84.931997 -103.270809 78.503387 -6.231683 -160.471906 -8.570901 -0.348901 0.125097 -2.810900 -0.475999 -0.226498 -6.984700 -2.559798 -7.012699 -3.027304 -3.043097 -2.446402 -18.260106 -20.740703 -1.400506 -6.961101 -14.966806 -14.262699 2.435500 19.128500 8.679997 -70.595695 -53.011385 -77.502993 -0.000006 -0.000004 -99.585702 30.031604 16.532898 7.836595 -8.496000 -18.314203 9.521098 -67.027627 65.836782 84.794925 0.000004 -0.000006 21.479403 1.011001 -7.318693 2.730197 7.247002 3.111801 8.586105 -10.326297 0.000001 0.000000 2.024998 -2.098599 7.092201 23.056401 0.000001 0.000004 -20.425300 0.375601 -5.411900 -8.753302 0.000000 -0.000001 14.394999 -0.980402 -5.416199 10.393206 -0.000001 0.000001 
-18.658827 84.479369 -100.929440 78.769885 -5.735008 -161.256594 -8.257402 -0.265001 0.166002 -2.606799 -0.325700 -0.240601 -7.142000 -2.330498 -6.518704 -3.060001 -3.099099 -2.317504 -18.242902 -21.932399 0.319593 -6.897902 -14.893801 -10.976301 1.953903 18.865299 9.199897 -70.528210 -53.710090 -77.068108 -0.000005 -0.000004 -99.440198 29.533803 15.945795 8.041997 -8.072997 -19.013196 9.935398 -66.635017 64.269782 85.441516 0.000007 -0.000007 24.065806 2.069603 -8.007203 3.819401 6.675199 2.823500 10.197304 -3.106301 0.000001 0.000001 1.490003 -2.494100 3.081099 23.600399 0.000001 0.000004 -21.655097 0.338700 -5.291298 -9.020303 0.000001 0.000001 15.635399 -0.839702 -4.816598 10.126701 0.000001 0.000003 
-19.811733 84.039956 -98.494860 79.172486 -5.747690 -162.228310 -7.913298 -0.607401 0.174901 -2.373700 -0.243300 -0.242900 -7.308702 -2.282098 -5.961402 -3.005701 -3.111098 -2.178602 -17.490405 -22.465199 1.913894 -6.396503 -15.030099 -8.418403 1.632104 18.481201 9.591400 -70.695107 -54.267388 -76.463803 -0.000008 -0.000004 -99.154703 29.951801 15.968293 7.922995 -7.395796 -19.498795 10.321099 -66.412806 62.294988 85.731301 -0.000000 -0.000008 26.859608 1.725897 -8.520399 4.090899 6.522903 2.032000 9.623700 0.036299 0.000001 0.000004 1.857098 -2.071101 1.553600 23.882906 0.000001 0.000002 -23.118202 -0.415798 -5.144303 -9.090099 0.000000 0.000000 16.832603 -0.522101 -4.351098 10.237902 0.000000 0.000002 
-21.114753 83.526356 -95.888315 79.556303 -5.763812 -163.234207 -7.538601 -0.862599 0.271099 -2.145299 -0.219200 -0.232901 -7.230100 -2.319099 -5.409501 -2.840800 -3.076098 -2.046002 -16.146506 -22.580000 3.498192 -5.815197 -15.203002 -6.188600 1.175302 18.149300 9.820596 -70.868998 -54.741083 -75.763704 -0.000004 -0.000002 -98.912498 30.002202 16.023791 7.994590 -6.657396 -20.006399 10.644798 -66.864614 60.279684 86.154804 0.000003 -0.000007 29.457411 1.589903 -8.962807 4.196897 6.930201 1.453600 7.252201 -1.582801 0.000002 0.000002 2.889201 -0.899599 3.026499 23.374511 0.000003 0.000006 -24.897103 -1.234896 -4.508004 -8.847402 0.000000 -0.000001 17.865697 -0.212201 -4.410400 10.484102 -0.000001 0.000002 
-22.681425 83.022432 -93.165940 80.152591 -6.036268 -164.419017 -6.996503 -1.367101 0.363001 -1.811999 -0.127601 -0.231898 -7.048599 -2.287099 -4.742600 -2.568301 -3.033198 -1.869802 -14.294103 -22.817500 4.929994 -5.074897 -15.488194 -4.715101 0.889202 17.586501 10.130399 -71.359605 -54.920285 -75.137606 -0.000006 -0.000007 -98.576603 29.671001 16.162396 8.118199 -5.907798 -20.395501 10.883898 -67.327114 58.249086 86.037909 0.000002 -0.000011 31.755708 2.118500 -8.864599 4.453997 7.767101 0.428599 5.288603 -6.374202 0.000000 0.000000 3.355804 0.972504 5.863801 23.535403 -0.000000 0.000002 -26.280205 -2.725598 -4.816502 -9.258901 0.000001 0.000000 18.829597 0.604300 -3.800698 10.453403 -0.000001 0.000000 
-24.573222 82.841823 -90.418666 80.798102 -7.366764 -165.846211 -6.540697 -2.774300 0.238599 -1.383798 0.011599 -0.224002 -7.221901 -2.314400 -3.877701 -2.223299 -2.938899 -1.636001 -11.552100 -23.040096 6.636793 -4.148602 -15.823302 -3.684203 0.992000 16.290093 10.543801 -71.231106 -55.028785 -73.725702 -0.000006 -0.000006 -97.946600 30.018697 15.219900 8.484096 -5.407197 -19.705201 11.204199 -66.165619 56.695682 83.809518 0.000005 -0.000010 33.787607 1.902999 -8.371699 4.411099 8.206501 -1.967300 3.251601 -9.719901 -0.000000 0.000001 -0.874204 3.038002 9.619799 23.215905 -0.000000 0.000002 -27.058397 -5.744598 -5.868403 -11.216703 0.000001 0.000000 19.040796 2.120598 -2.715399 11.117703 0.000000 0.000002 
